<?xml version="1.0" encoding="UTF-8" standalone="no"?>
<!DOCTYPE svg PUBLIC "-//W3C//DTD SVG 1.1//EN" "http://www.w3.org/Graphics/SVG/1.1/DTD/svg11.dtd">
<svg xmlns="http://www.w3.org/2000/svg" version="1.1" viewBox="0.00 0.00 1024.00 1024.00">
<g stroke-width="2.00" fill="none" stroke-linecap="butt">
<path stroke="#fdd2a9" vector-effect="non-scaling-stroke" d="
  M 418.89 276.76
  L 405.66 231.25
  A 0.40 0.40 0.0 0 0 404.87 231.36
  L 404.52 361.49"
/>
<path stroke="#dcddde" vector-effect="non-scaling-stroke" d="
  M 404.52 361.49
  Q 334.91 361.52 265.44 361.48
  Q 258.67 361.47 254.72 362.76
  C 245.23 365.85 236.07 375.45 236.48 386.50
  C 236.61 389.83 236.25 394.17 236.25 396.50
  Q 236.24 542.59 236.26 688.67
  C 236.26 693.28 236.53 701.02 236.47 707.74
  C 236.37 719.06 245.30 732.07 257.57 732.17
  C 291.41 732.45 325.18 732.45 359.02 732.15
  Q 359.43 732.15 359.82 731.97
  Q 360.56 731.62 360.62 731.70"
/>
<path stroke="#9497a4" vector-effect="non-scaling-stroke" d="
  M 360.62 731.70
  L 424.99 731.74"
/>
<path stroke="#dcddde" vector-effect="non-scaling-stroke" d="
  M 424.99 731.74
  L 436.66 731.96
  Q 437.17 731.97 437.40 732.42
  Q 439.73 737.00 442.24 741.49
  Q 454.18 762.88 457.26 786.53
  A 1.08 1.08 0.0 0 1 456.19 787.75
  L 230.28 787.75
  A 0.78 0.78 0.0 0 0 229.50 788.53
  L 229.50 843.71
  Q 229.50 844.43 230.22 844.43
  L 453.95 844.67
  Q 454.52 844.67 454.51 845.25
  C 454.14 861.38 448.80 881.23 437.32 892.57
  Q 432.80 897.04 428.07 901.34
  C 420.30 908.41 424.11 917.84 434.41 917.62
  Q 445.16 917.40 462.25 917.69
  Q 486.90 918.10 573.66 917.59
  C 580.91 917.55 586.32 916.48 587.13 908.56
  Q 587.18 908.06 586.95 907.61
  C 583.57 901.01 575.82 896.95 570.76 891.04
  C 559.65 878.07 555.25 861.57 554.23 844.73"
/>
<path stroke="#ededee" vector-effect="non-scaling-stroke" d="
  M 554.23 844.73
  L 670.09 845.15"
/>
<path stroke="#f0b4b0" vector-effect="non-scaling-stroke" d="
  M 670.09 845.15
  Q 671.30 862.64 675.22 877.74
  C 678.62 890.80 687.15 897.19 697.94 904.18"
/>
<path stroke="#9497a4" vector-effect="non-scaling-stroke" d="
  M 697.94 904.18
  L 635.96 903.78
  A 0.43 0.43 0.0 0 0 635.66 904.52
  C 642.73 911.50 650.08 915.67 660.01 918.81
  C 687.93 927.64 712.63 926.24 745.68 926.01
  C 770.53 925.83 801.57 922.25 820.60 904.14
  Q 821.08 903.69 820.42 903.69
  L 760.01 904.49"
/>
<path stroke="#f0b4b0" vector-effect="non-scaling-stroke" d="
  M 760.01 904.49
  Q 759.93 904.07 760.34 903.87
  Q 770.21 899.00 777.05 889.86"
/>
<path stroke="#fcf3b7" vector-effect="non-scaling-stroke" d="
  M 777.05 889.86
  Q 786.08 890.49 795.53 889.35"
/>
<path stroke="#9497a4" vector-effect="non-scaling-stroke" d="
  M 795.53 889.35
  C 805.02 888.83 814.59 884.26 818.30 875.18
  C 822.05 866.02 818.81 855.95 810.97 850.10
  C 803.65 844.64 796.12 844.55 786.30 845.23"
/>
<path stroke="#f0b4b0" vector-effect="non-scaling-stroke" d="
  M 786.30 845.23
  Q 786.71 839.84 787.16 834.44
  C 787.74 827.58 787.47 821.91 779.00 822.23"
/>
<path stroke="#ededee" vector-effect="non-scaling-stroke" d="
  M 779.00 822.23
  Q 775.52 822.09 775.52 818.74
  Q 775.53 803.56 775.48 788.24
  Q 775.48 787.75 774.99 787.75
  L 549.60 787.75
  A 0.57 0.57 0.0 0 1 549.03 787.13
  C 550.49 767.79 556.03 748.73 567.47 732.80
  Q 567.76 732.40 568.25 732.30
  L 570.50 731.84"
/>
<path stroke="#9497a4" vector-effect="non-scaling-stroke" d="
  M 570.50 731.84
  L 675.65 731.97"
/>
<path stroke="#ededee" vector-effect="non-scaling-stroke" d="
  M 675.65 731.97
  Q 710.02 732.39 744.67 732.32
  C 762.14 732.29 772.51 721.55 772.52 704.50
  Q 772.61 600.66 772.11 391.00
  C 772.07 374.20 761.36 361.42 744.06 361.47
  Q 688.18 361.64 632.31 361.23
  Q 622.46 361.16 612.48 361.45"
/>
<path stroke="#fcf3b7" vector-effect="non-scaling-stroke" d="
  M 612.48 361.45
  L 611.75 258.82
  A 0.61 0.60 53.5 0 0 610.57 258.64
  C 604.96 276.93 599.52 294.75 594.09 313.64
  Q 589.26 330.46 583.45 346.98
  Q 583.28 347.45 582.85 347.69
  L 582.25 348.03"
/>
<path stroke="#a2e1d7" vector-effect="non-scaling-stroke" d="
  M 582.25 348.03
  L 581.85 109.11
  A 0.81 0.04 64.7 0 0 581.57 108.44
  Q 581.53 108.34 581.53 108.20
  A 0.70 0.60 -35.7 0 0 580.26 108.10
  L 560.15 149.66
  A 0.52 0.42 -50.5 0 1 559.33 149.83
  L 536.87 111.49
  Q 536.72 111.23 536.57 111.50
  L 501.85 178.84
  A 0.54 0.54 0.0 0 1 500.88 178.81
  Q 485.88 145.40 472.28 111.40
  A 0.28 0.28 0.0 0 0 471.76 111.40
  L 453.88 152.74
  Q 453.17 154.37 452.18 152.89
  L 421.09 106.90
  A 0.54 0.54 0.0 0 0 420.11 107.19
  Q 419.77 126.16 420.18 145.56
  Q 420.74 171.97 419.89 261.19
  Q 419.83 266.96 418.89 276.76"
/>
<path stroke="#a2d892" vector-effect="non-scaling-stroke" d="
  M 582.25 348.03
  Q 579.44 360.38 575.59 372.57
  C 563.16 411.92 549.82 450.81 536.31 489.78
  C 530.30 507.10 521.97 527.17 516.79 541.31
  Q 516.00 543.47 515.79 547.20"
/>
<path stroke="#3a7c7f" vector-effect="non-scaling-stroke" d="
  M 515.79 547.20
  Q 514.65 546.19 513.95 546.27"
/>
<path stroke="#a3b784" vector-effect="non-scaling-stroke" d="
  M 513.95 546.27
  Q 505.20 527.54 500.99 516.46
  Q 468.68 431.35 442.16 355.07
  Q 429.29 318.04 418.89 276.76"
/>
<path stroke="#ede4a9" vector-effect="non-scaling-stroke" d="
  M 612.48 361.45
  L 612.48 380.50"
/>
<path stroke="#fcf3b7" vector-effect="non-scaling-stroke" d="
  M 612.48 380.50
  L 612.80 657.28
  Q 612.80 657.82 612.31 658.07
  L 611.40 658.53"
/>
<path stroke="#948e5f" vector-effect="non-scaling-stroke" d="
  M 611.40 658.53
  L 515.79 547.20"
/>
<path stroke="#946d51" vector-effect="non-scaling-stroke" d="
  M 513.95 546.27
  C 515.11 548.60 503.71 562.34 499.25 568.00
  Q 484.92 586.23 438.50 641.17
  C 427.47 654.24 416.39 668.33 404.94 681.62"
/>
<path stroke="#fdd2a9" vector-effect="non-scaling-stroke" d="
  M 404.94 681.62
  C 403.72 680.27 404.50 679.27 404.50 677.93
  Q 404.49 529.08 404.51 380.27"
/>
<path stroke="#dcb38b" vector-effect="non-scaling-stroke" d="
  M 404.51 380.27
  L 404.52 361.49"
/>
<path stroke="#848896" vector-effect="non-scaling-stroke" d="
  M 570.50 731.84
  L 497.99 731.90"
/>
<path stroke="#737886" vector-effect="non-scaling-stroke" d="
  M 497.99 731.90
  L 424.99 731.74"
/>
<path stroke="#848896" vector-effect="non-scaling-stroke" d="
  M 675.65 731.97
  L 655.79 709.91"
/>
<path stroke="#ededee" vector-effect="non-scaling-stroke" d="
  M 655.79 709.91
  Q 658.66 709.03 661.99 709.20
  Q 667.39 709.49 667.47 709.49
  Q 706.39 709.15 745.17 709.26
  Q 745.74 709.26 745.74 708.70
  L 745.98 381.24
  A 0.99 0.99 0.0 0 0 744.99 380.25
  L 613.01 380.25
  Q 612.86 380.25 612.77 380.37
  Q 612.69 380.48 612.48 380.50"
/>
<path stroke="#9497a4" vector-effect="non-scaling-stroke" d="
  M 655.79 709.91
  Q 633.28 684.92 611.40 658.53"
/>
<path stroke="#dcddde" vector-effect="non-scaling-stroke" d="
  M 404.51 380.27
  L 262.16 380.27
  Q 261.61 380.27 261.61 380.82
  L 261.45 708.96
  Q 261.45 709.54 262.03 709.55
  L 379.98 709.79"
/>
<path stroke="#737886" vector-effect="non-scaling-stroke" d="
  M 379.98 709.79
  L 360.62 731.70"
/>
<path stroke="#9497a4" vector-effect="non-scaling-stroke" d="
  M 404.94 681.62
  L 379.98 709.79"
/>
<path stroke="#ccced0" vector-effect="non-scaling-stroke" d="
  M 497.99 731.90
  L 498.00 843.99
  Q 498.00 844.53 498.55 844.53
  L 554.23 844.73"
/>
<path stroke="#e1a5a2" vector-effect="non-scaling-stroke" d="
  M 779.00 822.23
  Q 728.56 822.72 678.11 822.43
  C 670.50 822.39 667.70 822.81 668.45 831.52
  Q 669.01 838.15 670.09 845.15"
/>
<path stroke="#884f58" vector-effect="non-scaling-stroke" d="
  M 786.30 845.23
  L 784.90 858.68
  Q 784.85 859.18 785.27 859.46
  L 785.80 859.80"
/>
<path stroke="#f0b4b0" vector-effect="non-scaling-stroke" d="
  M 785.80 859.80
  C 783.93 859.20 782.16 874.07 781.84 875.87"
/>
<path stroke="#884f58" vector-effect="non-scaling-stroke" d="
  M 781.84 875.87
  L 776.93 889.47"
/>
<path stroke="#f0aa6b" vector-effect="non-scaling-stroke" d="
  M 776.93 889.47
  Q 776.32 890.26 777.05 889.86"
/>
<path stroke="#884f58" vector-effect="non-scaling-stroke" d="
  M 760.01 904.49
  Q 728.78 906.27 697.94 904.18"
/>
<path stroke="#948e5f" vector-effect="non-scaling-stroke" d="
  M 795.53 889.35
  L 776.93 889.47"
/>
<path stroke="#9497a4" vector-effect="non-scaling-stroke" d="
  M 781.84 875.87
  C 789.63 877.26 803.88 879.04 805.60 868.81
  C 807.41 858.05 792.67 859.45 785.80 859.80"
/>
<path stroke="#f0b4b0" vector-effect="non-scaling-stroke" d="
  M 376.7664 242.8409
  A 75.90 74.11 4.3 0 0 306.6367 163.2486
  A 75.90 74.11 4.3 0 0 225.3936 231.4591
  A 75.90 74.11 4.3 0 0 295.5233 311.0514
  A 75.90 74.11 4.3 0 0 376.7664 242.8409"
/>
</g>
<path fill="#fcfcfc" d="
  M 0.00 0.00
  L 1024.00 0.00
  L 1024.00 1024.00
  L 0.00 1024.00
  L 0.00 0.00
  Z
  M 418.89 276.76
  L 405.66 231.25
  A 0.40 0.40 0.0 0 0 404.87 231.36
  L 404.52 361.49
  Q 334.91 361.52 265.44 361.48
  Q 258.67 361.47 254.72 362.76
  C 245.23 365.85 236.07 375.45 236.48 386.50
  C 236.61 389.83 236.25 394.17 236.25 396.50
  Q 236.24 542.59 236.26 688.67
  C 236.26 693.28 236.53 701.02 236.47 707.74
  C 236.37 719.06 245.30 732.07 257.57 732.17
  C 291.41 732.45 325.18 732.45 359.02 732.15
  Q 359.43 732.15 359.82 731.97
  Q 360.56 731.62 360.62 731.70
  L 424.99 731.74
  L 436.66 731.96
  Q 437.17 731.97 437.40 732.42
  Q 439.73 737.00 442.24 741.49
  Q 454.18 762.88 457.26 786.53
  A 1.08 1.08 0.0 0 1 456.19 787.75
  L 230.28 787.75
  A 0.78 0.78 0.0 0 0 229.50 788.53
  L 229.50 843.71
  Q 229.50 844.43 230.22 844.43
  L 453.95 844.67
  Q 454.52 844.67 454.51 845.25
  C 454.14 861.38 448.80 881.23 437.32 892.57
  Q 432.80 897.04 428.07 901.34
  C 420.30 908.41 424.11 917.84 434.41 917.62
  Q 445.16 917.40 462.25 917.69
  Q 486.90 918.10 573.66 917.59
  C 580.91 917.55 586.32 916.48 587.13 908.56
  Q 587.18 908.06 586.95 907.61
  C 583.57 901.01 575.82 896.95 570.76 891.04
  C 559.65 878.07 555.25 861.57 554.23 844.73
  L 670.09 845.15
  Q 671.30 862.64 675.22 877.74
  C 678.62 890.80 687.15 897.19 697.94 904.18
  L 635.96 903.78
  A 0.43 0.43 0.0 0 0 635.66 904.52
  C 642.73 911.50 650.08 915.67 660.01 918.81
  C 687.93 927.64 712.63 926.24 745.68 926.01
  C 770.53 925.83 801.57 922.25 820.60 904.14
  Q 821.08 903.69 820.42 903.69
  L 760.01 904.49
  Q 759.93 904.07 760.34 903.87
  Q 770.21 899.00 777.05 889.86
  Q 786.08 890.49 795.53 889.35
  C 805.02 888.83 814.59 884.26 818.30 875.18
  C 822.05 866.02 818.81 855.95 810.97 850.10
  C 803.65 844.64 796.12 844.55 786.30 845.23
  Q 786.71 839.84 787.16 834.44
  C 787.74 827.58 787.47 821.91 779.00 822.23
  Q 775.52 822.09 775.52 818.74
  Q 775.53 803.56 775.48 788.24
  Q 775.48 787.75 774.99 787.75
  L 549.60 787.75
  A 0.57 0.57 0.0 0 1 549.03 787.13
  C 550.49 767.79 556.03 748.73 567.47 732.80
  Q 567.76 732.40 568.25 732.30
  L 570.50 731.84
  L 675.65 731.97
  Q 710.02 732.39 744.67 732.32
  C 762.14 732.29 772.51 721.55 772.52 704.50
  Q 772.61 600.66 772.11 391.00
  C 772.07 374.20 761.36 361.42 744.06 361.47
  Q 688.18 361.64 632.31 361.23
  Q 622.46 361.16 612.48 361.45
  L 611.75 258.82
  A 0.61 0.60 53.5 0 0 610.57 258.64
  C 604.96 276.93 599.52 294.75 594.09 313.64
  Q 589.26 330.46 583.45 346.98
  Q 583.28 347.45 582.85 347.69
  L 582.25 348.03
  L 581.85 109.11
  A 0.81 0.04 64.7 0 0 581.57 108.44
  Q 581.53 108.34 581.53 108.20
  A 0.70 0.60 -35.7 0 0 580.26 108.10
  L 560.15 149.66
  A 0.52 0.42 -50.5 0 1 559.33 149.83
  L 536.87 111.49
  Q 536.72 111.23 536.57 111.50
  L 501.85 178.84
  A 0.54 0.54 0.0 0 1 500.88 178.81
  Q 485.88 145.40 472.28 111.40
  A 0.28 0.28 0.0 0 0 471.76 111.40
  L 453.88 152.74
  Q 453.17 154.37 452.18 152.89
  L 421.09 106.90
  A 0.54 0.54 0.0 0 0 420.11 107.19
  Q 419.77 126.16 420.18 145.56
  Q 420.74 171.97 419.89 261.19
  Q 419.83 266.96 418.89 276.76
  Z
  M 376.7664 242.8409
  A 75.90 74.11 4.3 0 0 306.6367 163.2486
  A 75.90 74.11 4.3 0 0 225.3936 231.4591
  A 75.90 74.11 4.3 0 0 295.5233 311.0514
  A 75.90 74.11 4.3 0 0 376.7664 242.8409
  Z"
/>
<path fill="#48c6b2" d="
  M 582.25 348.03
  Q 579.44 360.38 575.59 372.57
  C 563.16 411.92 549.82 450.81 536.31 489.78
  C 530.30 507.10 521.97 527.17 516.79 541.31
  Q 516.00 543.47 515.79 547.20
  Q 514.65 546.19 513.95 546.27
  Q 505.20 527.54 500.99 516.46
  Q 468.68 431.35 442.16 355.07
  Q 429.29 318.04 418.89 276.76
  Q 419.83 266.96 419.89 261.19
  Q 420.74 171.97 420.18 145.56
  Q 419.77 126.16 420.11 107.19
  A 0.54 0.54 0.0 0 1 421.09 106.90
  L 452.18 152.89
  Q 453.17 154.37 453.88 152.74
  L 471.76 111.40
  A 0.28 0.28 0.0 0 1 472.28 111.40
  Q 485.88 145.40 500.88 178.81
  A 0.54 0.54 0.0 0 0 501.85 178.84
  L 536.57 111.50
  Q 536.72 111.23 536.87 111.49
  L 559.33 149.83
  A 0.52 0.42 -50.5 0 0 560.15 149.66
  L 580.26 108.10
  A 0.70 0.60 -35.7 0 1 581.53 108.20
  Q 581.53 108.34 581.57 108.44
  A 0.81 0.04 64.7 0 1 581.85 109.11
  L 582.25 348.03
  Z"
/>
<ellipse fill="#e46b64" cx="0.00" cy="0.00" transform="translate(301.08,237.15) rotate(4.3)" rx="75.90" ry="74.11"/>
<path fill="#fda856" d="
  M 418.89 276.76
  Q 429.29 318.04 442.16 355.07
  Q 468.68 431.35 500.99 516.46
  Q 505.20 527.54 513.95 546.27
  C 515.11 548.60 503.71 562.34 499.25 568.00
  Q 484.92 586.23 438.50 641.17
  C 427.47 654.24 416.39 668.33 404.94 681.62
  C 403.72 680.27 404.50 679.27 404.50 677.93
  Q 404.49 529.08 404.51 380.27
  L 404.52 361.49
  L 404.87 231.36
  A 0.40 0.40 0.0 0 1 405.66 231.25
  L 418.89 276.76
  Z"
/>
<path fill="#fce971" d="
  M 612.48 361.45
  L 612.48 380.50
  L 612.80 657.28
  Q 612.80 657.82 612.31 658.07
  L 611.40 658.53
  L 515.79 547.20
  Q 516.00 543.47 516.79 541.31
  C 521.97 527.17 530.30 507.10 536.31 489.78
  C 549.82 450.81 563.16 411.92 575.59 372.57
  Q 579.44 360.38 582.25 348.03
  L 582.85 347.69
  Q 583.28 347.45 583.45 346.98
  Q 589.26 330.46 594.09 313.64
  C 599.52 294.75 604.96 276.93 610.57 258.64
  A 0.61 0.60 53.5 0 1 611.75 258.82
  L 612.48 361.45
  Z"
/>
<path fill="#dddee0" d="
  M 675.65 731.97
  L 655.79 709.91
  Q 658.66 709.03 661.99 709.20
  Q 667.39 709.49 667.47 709.49
  Q 706.39 709.15 745.17 709.26
  Q 745.74 709.26 745.74 708.70
  L 745.98 381.24
  A 0.99 0.99 0.0 0 0 744.99 380.25
  L 613.01 380.25
  Q 612.86 380.25 612.77 380.37
  Q 612.69 380.48 612.48 380.50
  L 612.48 361.45
  Q 622.46 361.16 632.31 361.23
  Q 688.18 361.64 744.06 361.47
  C 761.36 361.42 772.07 374.20 772.11 391.00
  Q 772.61 600.66 772.52 704.50
  C 772.51 721.55 762.14 732.29 744.67 732.32
  Q 710.02 732.39 675.65 731.97
  Z"
/>
<path fill="#bbbec0" d="
  M 404.52 361.49
  L 404.51 380.27
  L 262.16 380.27
  Q 261.61 380.27 261.61 380.82
  L 261.45 708.96
  Q 261.45 709.54 262.03 709.55
  L 379.98 709.79
  L 360.62 731.70
  Q 360.56 731.62 359.82 731.97
  Q 359.43 732.15 359.02 732.15
  C 325.18 732.45 291.41 732.45 257.57 732.17
  C 245.30 732.07 236.37 719.06 236.47 707.74
  C 236.53 701.02 236.26 693.28 236.26 688.67
  Q 236.24 542.59 236.25 396.50
  C 236.25 394.17 236.61 389.83 236.48 386.50
  C 236.07 375.45 245.23 365.85 254.72 362.76
  Q 258.67 361.47 265.44 361.48
  Q 334.91 361.52 404.52 361.49
  Z"
/>
<path fill="#fcfcfc" d="
  M 404.51 380.27
  Q 404.49 529.08 404.50 677.93
  C 404.50 679.27 403.72 680.27 404.94 681.62
  L 379.98 709.79
  L 262.03 709.55
  Q 261.45 709.54 261.45 708.96
  L 261.61 380.82
  Q 261.61 380.27 262.16 380.27
  L 404.51 380.27
  Z"
/>
<path fill="#fcfcfc" d="
  M 655.79 709.91
  Q 633.28 684.92 611.40 658.53
  L 612.31 658.07
  Q 612.80 657.82 612.80 657.28
  L 612.48 380.50
  Q 612.69 380.48 612.77 380.37
  Q 612.86 380.25 613.01 380.25
  L 744.99 380.25
  A 0.99 0.99 0.0 0 1 745.98 381.24
  L 745.74 708.70
  Q 745.74 709.26 745.17 709.26
  Q 706.39 709.15 667.47 709.49
  Q 667.39 709.49 661.99 709.20
  Q 658.66 709.03 655.79 709.91
  Z"
/>
<path fill="#2b324c" d="
  M 513.95 546.27
  Q 514.65 546.19 515.79 547.20
  L 611.40 658.53
  Q 633.28 684.92 655.79 709.91
  L 675.65 731.97
  L 570.50 731.84
  L 497.99 731.90
  L 424.99 731.74
  L 360.62 731.70
  L 379.98 709.79
  L 404.94 681.62
  C 416.39 668.33 427.47 654.24 438.50 641.17
  Q 484.92 586.23 499.25 568.00
  C 503.71 562.34 515.11 548.60 513.95 546.27
  Z"
/>
<path fill="#bbbec0" d="
  M 424.99 731.74
  L 497.99 731.90
  L 498.00 843.99
  Q 498.00 844.53 498.55 844.53
  L 554.23 844.73
  C 555.25 861.57 559.65 878.07 570.76 891.04
  C 575.82 896.95 583.57 901.01 586.95 907.61
  Q 587.18 908.06 587.13 908.56
  C 586.32 916.48 580.91 917.55 573.66 917.59
  Q 486.90 918.10 462.25 917.69
  Q 445.16 917.40 434.41 917.62
  C 424.11 917.84 420.30 908.41 428.07 901.34
  Q 432.80 897.04 437.32 892.57
  C 448.80 881.23 454.14 861.38 454.51 845.25
  Q 454.52 844.67 453.95 844.67
  L 230.22 844.43
  Q 229.50 844.43 229.50 843.71
  L 229.50 788.53
  A 0.78 0.78 0.0 0 1 230.28 787.75
  L 456.19 787.75
  A 1.08 1.08 0.0 0 0 457.26 786.53
  Q 454.18 762.88 442.24 741.49
  Q 439.73 737.00 437.40 732.42
  Q 437.17 731.97 436.66 731.96
  L 424.99 731.74
  Z"
/>
<path fill="#dddee0" d="
  M 570.50 731.84
  L 568.25 732.30
  Q 567.76 732.40 567.47 732.80
  C 556.03 748.73 550.49 767.79 549.03 787.13
  A 0.57 0.57 0.0 0 0 549.60 787.75
  L 774.99 787.75
  Q 775.48 787.75 775.48 788.24
  Q 775.53 803.56 775.52 818.74
  Q 775.52 822.09 779.00 822.23
  Q 728.56 822.72 678.11 822.43
  C 670.50 822.39 667.70 822.81 668.45 831.52
  Q 669.01 838.15 670.09 845.15
  L 554.23 844.73
  L 498.55 844.53
  Q 498.00 844.53 498.00 843.99
  L 497.99 731.90
  L 570.50 731.84
  Z"
/>
<path fill="#e46b64" d="
  M 779.00 822.23
  C 787.47 821.91 787.74 827.58 787.16 834.44
  Q 786.71 839.84 786.30 845.23
  L 784.90 858.68
  Q 784.85 859.18 785.27 859.46
  L 785.80 859.80
  C 783.93 859.20 782.16 874.07 781.84 875.87
  L 776.93 889.47
  Q 776.32 890.26 777.05 889.86
  Q 770.21 899.00 760.34 903.87
  Q 759.93 904.07 760.01 904.49
  Q 728.78 906.27 697.94 904.18
  C 687.15 897.19 678.62 890.80 675.22 877.74
  Q 671.30 862.64 670.09 845.15
  Q 669.01 838.15 668.45 831.52
  C 667.70 822.81 670.50 822.39 678.11 822.43
  Q 728.56 822.72 779.00 822.23
  Z"
/>
<path fill="#2b324c" d="
  M 795.53 889.35
  L 776.93 889.47
  L 781.84 875.87
  C 789.63 877.26 803.88 879.04 805.60 868.81
  C 807.41 858.05 792.67 859.45 785.80 859.80
  L 785.27 859.46
  Q 784.85 859.18 784.90 858.68
  L 786.30 845.23
  C 796.12 844.55 803.65 844.64 810.97 850.10
  C 818.81 855.95 822.05 866.02 818.30 875.18
  C 814.59 884.26 805.02 888.83 795.53 889.35
  Z"
/>
<path fill="#fcfcfc" d="
  M 785.80 859.80
  C 792.67 859.45 807.41 858.05 805.60 868.81
  C 803.88 879.04 789.63 877.26 781.84 875.87
  C 782.16 874.07 783.93 859.20 785.80 859.80
  Z"
/>
<path fill="#fce971" d="
  M 795.53 889.35
  Q 786.08 890.49 777.05 889.86
  Q 776.32 890.26 776.93 889.47
  L 795.53 889.35
  Z"
/>
<path fill="#2b324c" d="
  M 697.94 904.18
  Q 728.78 906.27 760.01 904.49
  L 820.42 903.69
  Q 821.08 903.69 820.60 904.14
  C 801.57 922.25 770.53 925.83 745.68 926.01
  C 712.63 926.24 687.93 927.64 660.01 918.81
  C 650.08 915.67 642.73 911.50 635.66 904.52
  A 0.43 0.43 0.0 0 1 635.96 903.78
  L 697.94 904.18
  Z"
/>
</svg>
